<svg viewBox="0 0 200 200" xmlns="http://www.w3.org/2000/svg">
  <path fill="#0F62FE" d="M42.4,-71.6C56.3,-65.5,69.6,-56.7,76.8,-44.3C84,-31.9,85.1,-16,84.2,-0.5C83.4,15,80.6,30,72.6,40.9C64.6,51.9,51.2,58.7,38.2,64.8C25.3,70.9,12.6,76.2,-1.7,79.1C-16,82,-32,82.6,-44.4,76.2C-56.9,69.8,-65.7,56.4,-72,42.6C-78.2,28.7,-81.9,14.4,-83.8,-1.1C-85.8,-16.6,-86.1,-33.2,-78.4,-44.6C-70.7,-55.9,-55,-62,-40.6,-67.8C-26.2,-73.6,-13.1,-79.2,0.6,-80.2C14.3,-81.3,28.6,-77.8,42.4,-71.6Z" transform="translate(100 100)" />
</svg>
